<?xml version="1.0" encoding="utf-8"?>
<!-- Generator: Adobe Illustrator 23.0.3, SVG Export Plug-In . SVG Version: 6.00 Build 0)  -->
<svg version="1.1" id="Layer_6" xmlns="http://www.w3.org/2000/svg" xmlns:xlink="http://www.w3.org/1999/xlink" x="0px" y="0px"
	 viewBox="0 0 525.5 646.4" style="enable-background:new 0 0 525.5 646.4;" xml:space="preserve">
<style type="text/css">
	.st0{fill:#13110C;}
	.st1{fill-rule:evenodd;clip-rule:evenodd;fill:#13110C;}
	.st2{fill:#EE7623;}
	.st3{fill-rule:evenodd;clip-rule:evenodd;fill:#EE7623;}
</style>
<g>
	<polygon class="st0" points="458.9,319.8 458.9,319.8 459,319.8 459,319.8 	"/>
</g>
<g>
	<path class="st1" d="M458.9,319.8l-1.3,1.1l-0.3-0.5 M457.4,320.4l1.6-0.6L457.4,320.4z"/>
</g>
<g>
	<path class="st0" d="M457.7,321l-0.2,0l-0.3-0.5l0.1-0.1l0-0.1l1.6-0.6l0,0.1l0.1,0.1L457.7,321z M457.5,320.5l0.2,0.3l0.7-0.6
		L457.5,320.5z"/>
</g>
<g>
	<g>
		<rect x="112.4" y="624" class="st0" width="34.2" height="0.4"/>
	</g>
	<g>
		<rect x="476.3" y="624" class="st0" width="34.2" height="0.4"/>
	</g>
	<g>
		<rect x="112.3" y="61.3" class="st0" width="0.4" height="562.9"/>
	</g>
	<g>
		<rect x="146.4" y="61.3" class="st0" width="0.4" height="380.6"/>
	</g>
	<g>
		<rect x="476.1" y="61.3" class="st0" width="0.4" height="380.6"/>
	</g>
	<g>
		<rect x="510.3" y="61.3" class="st0" width="0.4" height="562.9"/>
	</g>
	<g>
		<rect x="510.3" y="61.3" class="st0" width="0.4" height="562.9"/>
	</g>
	<g>
		<rect x="146.6" y="423" class="st0" width="329.7" height="0.4"/>
	</g>
	<g>
		<rect x="146.6" y="409.4" class="st0" width="329.7" height="0.4"/>
	</g>
	<g>
		<rect x="146.6" y="427.7" class="st0" width="0.7" height="0.4"/>
	</g>
	<g>
		<rect x="146.4" y="400.1" class="st0" width="0.4" height="27.8"/>
	</g>
	<g>
		<path class="st0" d="M158.4,417.9c-0.8,0-1.5-0.7-1.5-1.5s0.7-1.5,1.5-1.5c0.8,0,1.5,0.7,1.5,1.5S159.2,417.9,158.4,417.9z
			 M158.4,415.3c-0.6,0-1.1,0.5-1.1,1.1s0.5,1.1,1.1,1.1c0.6,0,1.1-0.5,1.1-1.1S159,415.3,158.4,415.3z"/>
	</g>
	<g>
		
			<rect x="158" y="415.3" transform="matrix(0.7321 -0.6812 0.6812 0.7321 -241.3633 219.36)" class="st0" width="0.4" height="2.6"/>
	</g>
	<g>
		
			<rect x="158.4" y="414.9" transform="matrix(0.7321 -0.6812 0.6812 0.7321 -241.0513 219.5107)" class="st0" width="0.4" height="2.6"/>
	</g>
	<g>
		<rect x="146.6" y="61.1" class="st0" width="329.7" height="0.4"/>
	</g>
	<g>
		<rect x="146.6" y="358.4" class="st0" width="329.7" height="0.4"/>
	</g>
	<g>
		<rect x="147.1" y="351.3" class="st0" width="328.8" height="0.4"/>
	</g>
	<g>
		<rect x="147.1" y="351.1" class="st0" width="328.8" height="0.4"/>
	</g>
	<g>
		<rect x="146.6" y="348.7" class="st0" width="329.8" height="0.4"/>
	</g>
	<g>
		<rect x="475.7" y="348.9" class="st0" width="0.4" height="2.6"/>
	</g>
	<g>
		<rect x="146.9" y="348.9" class="st0" width="0.4" height="2.6"/>
	</g>
	<g>
		<rect x="293.8" y="624" class="st0" width="35.3" height="0.4"/>
	</g>
	<g>
		<rect x="484.9" y="383.6" class="st0" width="17.1" height="0.4"/>
	</g>
	<g>
		<rect x="484.9" y="373" class="st0" width="17.1" height="0.4"/>
	</g>
	<g>
		<rect x="501.8" y="330.8" class="st0" width="0.4" height="10.6"/>
	</g>
	<g>
		<rect x="484.9" y="330.6" class="st0" width="17.1" height="0.4"/>
	</g>
	<g>
		<rect x="484.9" y="341.2" class="st0" width="17.1" height="0.4"/>
	</g>
	<g>
		<rect x="484.7" y="330.8" class="st0" width="0.4" height="10.6"/>
	</g>
	<g>
		<rect x="484.7" y="373.2" class="st0" width="0.4" height="10.6"/>
	</g>
	<g>
		<rect x="501.8" y="373.2" class="st0" width="0.4" height="10.6"/>
	</g>
	<g>
		<rect x="112.4" y="61.1" class="st0" width="34.2" height="0.4"/>
	</g>
	<g>
		<rect x="476.3" y="61.1" class="st0" width="34.2" height="0.4"/>
	</g>
	<g>
		<rect x="488" y="631.1" class="st0" width="18.8" height="0.4"/>
	</g>
	<g>
		<rect x="488" y="630.4" class="st0" width="18.8" height="0.4"/>
	</g>
	<g>
		<rect x="506.6" y="630.6" class="st0" width="0.4" height="0.7"/>
	</g>
	<g>
		<polygon class="st0" points="488.1,630.7 487.8,630.4 495.1,624.1 495.3,624.4 		"/>
	</g>
	<g>
		
			<rect x="503" y="622.6" transform="matrix(0.6572 -0.7537 0.7537 0.6572 -300.4095 594.3077)" class="st0" width="0.4" height="9.6"/>
	</g>
	<g>
		<rect x="487.8" y="630.6" class="st0" width="0.4" height="0.7"/>
	</g>
	<g>
		<rect x="499.4" y="624.2" class="st0" width="0.4" height="0.1"/>
	</g>
	<g>
		<rect x="495.2" y="624.1" class="st0" width="4.4" height="0.4"/>
	</g>
	<g>
		<rect x="116.1" y="631.1" class="st0" width="18.8" height="0.4"/>
	</g>
	<g>
		<rect x="116.1" y="630.4" class="st0" width="18.8" height="0.4"/>
	</g>
	<g>
		<rect x="134.8" y="630.6" class="st0" width="0.4" height="0.7"/>
	</g>
	<g>
		<polygon class="st0" points="116.2,630.7 116,630.4 123.2,624.1 123.5,624.4 		"/>
	</g>
	<g>
		<polygon class="st0" points="134.8,630.7 127.6,624.4 127.9,624.1 135.1,630.4 		"/>
	</g>
	<g>
		<rect x="115.9" y="630.6" class="st0" width="0.4" height="0.7"/>
	</g>
	<g>
		<rect x="127.6" y="624.2" class="st0" width="0.4" height="0.1"/>
	</g>
	<g>
		<rect x="123.3" y="624.1" class="st0" width="4.4" height="0.4"/>
	</g>
	<g>
		<rect x="146.6" y="296.6" class="st0" width="329.7" height="0.4"/>
	</g>
	<g>
		<path class="st0" d="M152.5,288.9c-0.8,0-1.5-0.7-1.5-1.5c0-0.8,0.7-1.5,1.5-1.5c0.8,0,1.5,0.7,1.5,1.5
			C154,288.2,153.3,288.9,152.5,288.9z M152.5,286.3c-0.6,0-1.1,0.5-1.1,1.1c0,0.6,0.5,1.1,1.1,1.1c0.6,0,1.1-0.5,1.1-1.1
			C153.6,286.8,153.1,286.3,152.5,286.3z"/>
	</g>
	<g>
		
			<rect x="152.1" y="286.3" transform="matrix(0.7321 -0.6812 0.6812 0.7321 -155.0834 180.7988)" class="st0" width="0.4" height="2.6"/>
	</g>
	<g>
		
			<rect x="152.5" y="286" transform="matrix(0.7321 -0.6812 0.6812 0.7321 -154.7724 180.9468)" class="st0" width="0.4" height="2.6"/>
	</g>
	<g>
		<path class="st0" d="M470.4,222c-0.8,0-1.5-0.7-1.5-1.5s0.7-1.5,1.5-1.5c0.8,0,1.5,0.7,1.5,1.5S471.3,222,470.4,222z M470.4,219.4
			c-0.6,0-1.1,0.5-1.1,1.1s0.5,1.1,1.1,1.1c0.6,0,1.1-0.5,1.1-1.1S471.1,219.4,470.4,219.4z"/>
	</g>
	<g>
		
			<rect x="470.1" y="219.4" transform="matrix(0.7319 -0.6814 0.6814 0.7319 -24.2965 379.6018)" class="st0" width="0.4" height="2.6"/>
	</g>
	<g>
		
			<rect x="470.4" y="219.1" transform="matrix(0.7318 -0.6816 0.6816 0.7318 -23.9438 379.8778)" class="st0" width="0.4" height="2.6"/>
	</g>
	<g>
		<path class="st0" d="M470.4,288.9c-0.8,0-1.5-0.7-1.5-1.5c0-0.8,0.7-1.5,1.5-1.5c0.8,0,1.5,0.7,1.5,1.5
			C471.9,288.2,471.3,288.9,470.4,288.9z M470.4,286.3c-0.6,0-1.1,0.5-1.1,1.1c0,0.6,0.5,1.1,1.1,1.1c0.6,0,1.1-0.5,1.1-1.1
			C471.5,286.8,471.1,286.3,470.4,286.3z"/>
	</g>
	<g>
		
			<rect x="470.1" y="286.3" transform="matrix(0.7321 -0.6812 0.6812 0.7321 -69.9021 397.3932)" class="st0" width="0.4" height="2.6"/>
	</g>
	<g>
		
			<rect x="470.4" y="286" transform="matrix(0.7321 -0.6812 0.6812 0.7321 -69.5911 397.5412)" class="st0" width="0.4" height="2.6"/>
	</g>
	<g>
		<rect x="146.6" y="218.9" class="st0" width="329.7" height="0.4"/>
	</g>
	<g>
		<rect x="290.1" y="423.2" class="st0" width="0.4" height="0.7"/>
	</g>
	<g>
		<rect x="294.8" y="423.2" class="st0" width="0.4" height="0.7"/>
	</g>
	<g>
		<rect x="299.5" y="423.2" class="st0" width="0.4" height="201"/>
	</g>
	<g>
		<rect x="323.1" y="423.2" class="st0" width="0.4" height="201"/>
	</g>
	<g>
		<rect x="327.8" y="423.2" class="st0" width="0.4" height="0.7"/>
	</g>
	<g>
		<rect x="332.5" y="423.2" class="st0" width="0.4" height="0.7"/>
	</g>
	<g>
		<rect x="299.2" y="624" class="st0" width="24.5" height="0.4"/>
	</g>
	<g>
		<rect x="290.3" y="423" class="st0" width="42.4" height="0.4"/>
	</g>
	<g>
		<rect x="147.1" y="423.9" class="st0" width="0.4" height="18"/>
	</g>
	<g>
		<rect x="147.3" y="423.7" class="st0" width="151.9" height="0.4"/>
	</g>
	<g>
		<rect x="299" y="423.9" class="st0" width="0.4" height="200.3"/>
	</g>
	<g>
		<rect x="147.3" y="624" class="st0" width="151.9" height="0.4"/>
	</g>
	<g>
		<rect x="147.7" y="430.8" class="st0" width="151.2" height="0.4"/>
	</g>
	<g>
		<rect x="147.7" y="435.5" class="st0" width="151.2" height="0.4"/>
	</g>
	<g>
		<rect x="147.5" y="431" class="st0" width="0.4" height="11.1"/>
	</g>
	<g>
		<rect x="298.7" y="431" class="st0" width="0.4" height="11.4"/>
	</g>
	<g>
		<rect x="147.5" y="431" class="st0" width="0.4" height="11.1"/>
	</g>
	<g>
		<rect x="145.8" y="590.9" class="st0" width="0.4" height="7.4"/>
	</g>
	<g>
		<rect x="146" y="598.1" class="st0" width="1.9" height="0.4"/>
	</g>
	<g>
		<rect x="147.7" y="590.9" class="st0" width="0.4" height="7.4"/>
	</g>
	<g>
		<rect x="145.8" y="598.3" class="st0" width="0.4" height="7.4"/>
	</g>
	<g>
		<rect x="147.7" y="598.3" class="st0" width="0.4" height="7.4"/>
	</g>
	<g>
		<rect x="146" y="605.5" class="st0" width="1.9" height="0.4"/>
	</g>
	<g>
		<path class="st0" d="M146.9,606.5c-0.2,0-0.4,0-0.5-0.1c-0.4-0.1-0.6-0.4-0.6-0.7h0.4c0,0.1,0.1,0.2,0.3,0.3
			c0.3,0.1,0.6,0.1,0.8,0c0.2-0.1,0.3-0.2,0.3-0.3h0.4c0,0.3-0.2,0.5-0.6,0.7C147.3,606.4,147.1,606.5,146.9,606.5z"/>
	</g>
	<g>
		<rect x="145.8" y="516.7" class="st0" width="0.4" height="7.4"/>
	</g>
	<g>
		<rect x="146" y="523.9" class="st0" width="1.9" height="0.4"/>
	</g>
	<g>
		<rect x="147.7" y="516.7" class="st0" width="0.4" height="7.4"/>
	</g>
	<g>
		<rect x="146" y="516.5" class="st0" width="1.9" height="0.4"/>
	</g>
	<g>
		<path class="st0" d="M148.1,516.7h-0.4c0-0.1-0.1-0.2-0.3-0.3c-0.3-0.1-0.6-0.1-0.8,0c-0.2,0.1-0.3,0.2-0.3,0.3h-0.4
			c0-0.3,0.2-0.5,0.6-0.7c0.3-0.1,0.7-0.1,1.1,0C147.9,516.1,148.1,516.4,148.1,516.7z"/>
	</g>
	<g>
		<rect x="145.8" y="524.1" class="st0" width="0.4" height="7.4"/>
	</g>
	<g>
		<rect x="147.7" y="524.1" class="st0" width="0.4" height="7.4"/>
	</g>
	<g>
		<rect x="146" y="531.3" class="st0" width="1.9" height="0.4"/>
	</g>
	<g>
		<path class="st0" d="M146.9,532.2c-0.2,0-0.4,0-0.5-0.1c-0.4-0.1-0.6-0.4-0.6-0.7h0.4c0,0.1,0.1,0.2,0.3,0.3
			c0.3,0.1,0.6,0.1,0.8,0c0.2-0.1,0.3-0.2,0.3-0.3h0.4c0,0.3-0.2,0.5-0.6,0.7C147.3,532.2,147.1,532.2,146.9,532.2z"/>
	</g>
	<g>
		<rect x="145.8" y="442.4" class="st0" width="0.4" height="7.4"/>
	</g>
	<g>
		<rect x="146" y="449.6" class="st0" width="1.9" height="0.4"/>
	</g>
	<g>
		<rect x="147.7" y="442.4" class="st0" width="0.4" height="7.4"/>
	</g>
	<g>
		<rect x="146" y="442.2" class="st0" width="1.9" height="0.4"/>
	</g>
	<g>
		<path class="st0" d="M148.1,442.4h-0.4c0-0.1-0.1-0.2-0.3-0.3c-0.3-0.1-0.6-0.1-0.8,0c-0.2,0.1-0.3,0.2-0.3,0.3h-0.4
			c0-0.3,0.2-0.5,0.6-0.7c0.3-0.1,0.7-0.1,1.1,0C147.9,441.9,148.1,442.1,148.1,442.4z"/>
	</g>
	<g>
		<rect x="145.8" y="449.8" class="st0" width="0.4" height="7.4"/>
	</g>
	<g>
		<rect x="147.7" y="449.8" class="st0" width="0.4" height="7.4"/>
	</g>
	<g>
		<rect x="146" y="457" class="st0" width="1.9" height="0.4"/>
	</g>
	<g>
		<path class="st0" d="M146.9,458c-0.2,0-0.4,0-0.5-0.1c-0.4-0.1-0.6-0.4-0.6-0.7h0.4c0,0.1,0.1,0.2,0.3,0.3c0.3,0.1,0.6,0.1,0.8,0
			c0.2-0.1,0.3-0.2,0.3-0.3h0.4c0,0.3-0.2,0.5-0.6,0.7C147.3,457.9,147.1,458,146.9,458z"/>
	</g>
	<g>
		<rect x="146" y="590.7" class="st0" width="1.9" height="0.4"/>
	</g>
	<g>
		<path class="st0" d="M148.1,590.9h-0.4c0-0.1-0.1-0.2-0.3-0.3c-0.3-0.1-0.6-0.1-0.8,0c-0.2,0.1-0.3,0.2-0.3,0.3h-0.4
			c0-0.3,0.2-0.5,0.6-0.7c0.3-0.1,0.7-0.1,1.1,0C147.9,590.4,148.1,590.6,148.1,590.9z"/>
	</g>
	<g>
		<rect x="476.7" y="590.9" class="st0" width="0.4" height="7.4"/>
	</g>
	<g>
		<rect x="475" y="598.1" class="st0" width="1.9" height="0.4"/>
	</g>
	<g>
		<rect x="474.8" y="590.9" class="st0" width="0.4" height="7.4"/>
	</g>
	<g>
		<rect x="476.7" y="598.3" class="st0" width="0.4" height="7.4"/>
	</g>
	<g>
		<rect x="474.8" y="598.3" class="st0" width="0.4" height="7.4"/>
	</g>
	<g>
		<rect x="475" y="605.5" class="st0" width="1.9" height="0.4"/>
	</g>
	<g>
		<path class="st0" d="M476,606.5c-0.2,0-0.4,0-0.5-0.1c-0.4-0.1-0.6-0.4-0.6-0.7h0.4c0,0.1,0.1,0.2,0.3,0.3c0.3,0.1,0.6,0.1,0.8,0
			c0.2-0.1,0.3-0.2,0.3-0.3h0.4c0,0.3-0.2,0.5-0.6,0.7C476.3,606.4,476.2,606.5,476,606.5z"/>
	</g>
	<g>
		<rect x="476.7" y="516.7" class="st0" width="0.4" height="7.4"/>
	</g>
	<g>
		<rect x="475" y="523.9" class="st0" width="1.9" height="0.4"/>
	</g>
	<g>
		<rect x="474.8" y="516.7" class="st0" width="0.4" height="7.4"/>
	</g>
	<g>
		<rect x="475" y="516.5" class="st0" width="1.9" height="0.4"/>
	</g>
	<g>
		<path class="st0" d="M477.1,516.7h-0.4c0-0.1-0.1-0.2-0.3-0.3c-0.3-0.1-0.6-0.1-0.8,0c-0.2,0.1-0.3,0.2-0.3,0.3h-0.4
			c0-0.3,0.2-0.5,0.6-0.7c0.3-0.1,0.7-0.1,1.1,0C476.9,516.1,477.1,516.4,477.1,516.7z"/>
	</g>
	<g>
		<rect x="476.7" y="524.1" class="st0" width="0.4" height="7.4"/>
	</g>
	<g>
		<rect x="474.8" y="524.1" class="st0" width="0.4" height="7.4"/>
	</g>
	<g>
		<rect x="475" y="531.3" class="st0" width="1.9" height="0.4"/>
	</g>
	<g>
		<path class="st0" d="M476,532.2c-0.2,0-0.4,0-0.5-0.1c-0.4-0.1-0.6-0.4-0.6-0.7h0.4c0,0.1,0.1,0.2,0.3,0.3c0.3,0.1,0.6,0.1,0.8,0
			c0.2-0.1,0.3-0.2,0.3-0.3h0.4c0,0.3-0.2,0.5-0.6,0.7C476.3,532.2,476.2,532.2,476,532.2z"/>
	</g>
	<g>
		<rect x="476.7" y="442.4" class="st0" width="0.4" height="7.4"/>
	</g>
	<g>
		<rect x="475" y="449.6" class="st0" width="1.9" height="0.4"/>
	</g>
	<g>
		<rect x="474.8" y="442.4" class="st0" width="0.4" height="7.4"/>
	</g>
	<g>
		<rect x="475" y="442.2" class="st0" width="1.9" height="0.4"/>
	</g>
	<g>
		<path class="st0" d="M477.1,442.4h-0.4c0-0.1-0.1-0.2-0.3-0.3c-0.3-0.1-0.6-0.1-0.8,0c-0.2,0.1-0.3,0.2-0.3,0.3h-0.4
			c0-0.3,0.2-0.5,0.6-0.7c0.3-0.1,0.7-0.1,1.1,0C476.9,441.9,477.1,442.1,477.1,442.4z"/>
	</g>
	<g>
		<rect x="476.7" y="449.8" class="st0" width="0.4" height="7.4"/>
	</g>
	<g>
		<rect x="474.8" y="449.8" class="st0" width="0.4" height="7.4"/>
	</g>
	<g>
		<rect x="475" y="457" class="st0" width="1.9" height="0.4"/>
	</g>
	<g>
		<path class="st0" d="M476,458c-0.2,0-0.4,0-0.5-0.1c-0.4-0.1-0.6-0.4-0.6-0.7h0.4c0,0.1,0.1,0.2,0.3,0.3c0.3,0.1,0.6,0.1,0.8,0
			c0.2-0.1,0.3-0.2,0.3-0.3h0.4c0,0.3-0.2,0.5-0.6,0.7C476.3,457.9,476.2,458,476,458z"/>
	</g>
	<g>
		<rect x="475" y="590.7" class="st0" width="1.9" height="0.4"/>
	</g>
	<g>
		<path class="st0" d="M477.1,590.9h-0.4c0-0.1-0.1-0.2-0.3-0.3c-0.3-0.1-0.6-0.1-0.8,0c-0.2,0.1-0.3,0.2-0.3,0.3h-0.4
			c0-0.3,0.2-0.5,0.6-0.7c0.3-0.1,0.7-0.1,1.1,0C476.9,590.4,477.1,590.6,477.1,590.9z"/>
	</g>
	<g>
		<path class="st0" d="M493.4,285.5c-1.5,0-2.8-1.2-2.8-2.8s1.2-2.8,2.8-2.8s2.8,1.2,2.8,2.8S494.9,285.5,493.4,285.5z M493.4,280.3
			c-1.3,0-2.4,1.1-2.4,2.4s1.1,2.4,2.4,2.4s2.4-1.1,2.4-2.4S494.7,280.3,493.4,280.3z"/>
	</g>
	<g>
		<path class="st0" d="M493.4,259.6c-1.5,0-2.8-1.2-2.8-2.8c0-1.5,1.2-2.8,2.8-2.8s2.8,1.2,2.8,2.8
			C496.2,258.3,494.9,259.6,493.4,259.6z M493.4,254.4c-1.3,0-2.4,1.1-2.4,2.4c0,1.3,1.1,2.4,2.4,2.4s2.4-1.1,2.4-2.4
			C495.8,255.5,494.7,254.4,493.4,254.4z"/>
	</g>
	<g>
		<rect x="146.6" y="301.3" class="st0" width="329.7" height="0.4"/>
	</g>
	<g>
		<rect x="146.6" y="387.1" class="st0" width="329.7" height="0.4"/>
	</g>
	<g>
		<path class="st0" d="M152.5,312.4c-0.8,0-1.5-0.7-1.5-1.5c0-0.8,0.7-1.5,1.5-1.5c0.8,0,1.5,0.7,1.5,1.5
			C154,311.8,153.3,312.4,152.5,312.4z M152.5,309.8c-0.6,0-1.1,0.5-1.1,1.1c0,0.6,0.5,1.1,1.1,1.1c0.6,0,1.1-0.5,1.1-1.1
			C153.6,310.3,153.1,309.8,152.5,309.8z"/>
	</g>
	<g>
		
			<rect x="152.1" y="309.8" transform="matrix(0.7318 -0.6816 0.6816 0.7318 -171.1915 187.276)" class="st0" width="0.4" height="2.6"/>
	</g>
	<g>
		
			<rect x="152.5" y="309.5" transform="matrix(0.7318 -0.6816 0.6816 0.7318 -170.8803 187.4241)" class="st0" width="0.4" height="2.6"/>
	</g>
	<g>
		<path class="st0" d="M152.5,379.3c-0.8,0-1.5-0.7-1.5-1.5s0.7-1.5,1.5-1.5c0.8,0,1.5,0.7,1.5,1.5S153.3,379.3,152.5,379.3z
			 M152.5,376.7c-0.6,0-1.1,0.5-1.1,1.1s0.5,1.1,1.1,1.1c0.6,0,1.1-0.5,1.1-1.1S153.1,376.7,152.5,376.7z"/>
	</g>
	<g>
		
			<rect x="152.1" y="376.7" transform="matrix(0.7319 -0.6814 0.6814 0.7319 -216.7366 205.1234)" class="st0" width="0.4" height="2.6"/>
	</g>
	<g>
		
			<rect x="152.5" y="376.4" transform="matrix(0.7318 -0.6816 0.6816 0.7318 -216.4705 205.3672)" class="st0" width="0.4" height="2.6"/>
	</g>
	<g>
		<path class="st0" d="M470.4,312.4c-0.8,0-1.5-0.7-1.5-1.5c0-0.8,0.7-1.5,1.5-1.5c0.8,0,1.5,0.7,1.5,1.5
			C471.9,311.8,471.3,312.4,470.4,312.4z M470.4,309.8c-0.6,0-1.1,0.5-1.1,1.1c0,0.6,0.5,1.1,1.1,1.1c0.6,0,1.1-0.5,1.1-1.1
			C471.5,310.3,471.1,309.8,470.4,309.8z"/>
	</g>
	<g>
		
			<rect x="470.1" y="309.8" transform="matrix(0.7318 -0.6816 0.6816 0.7318 -85.898 403.9909)" class="st0" width="0.4" height="2.6"/>
	</g>
	<g>
		
			<rect x="470.4" y="309.5" transform="matrix(0.7318 -0.6816 0.6816 0.7318 -85.5868 404.139)" class="st0" width="0.4" height="2.6"/>
	</g>
	<g>
		<path class="st0" d="M470.4,379.3c-0.8,0-1.5-0.7-1.5-1.5s0.7-1.5,1.5-1.5c0.8,0,1.5,0.7,1.5,1.5S471.3,379.3,470.4,379.3z
			 M470.4,376.7c-0.6,0-1.1,0.5-1.1,1.1s0.5,1.1,1.1,1.1c0.6,0,1.1-0.5,1.1-1.1S471.1,376.7,470.4,376.7z"/>
	</g>
	<g>
		
			<rect x="470.1" y="376.7" transform="matrix(0.7319 -0.6814 0.6814 0.7319 -131.4992 421.778)" class="st0" width="0.4" height="2.6"/>
	</g>
	<g>
		
			<rect x="470.4" y="376.4" transform="matrix(0.7318 -0.6816 0.6816 0.7318 -131.177 422.0822)" class="st0" width="0.4" height="2.6"/>
	</g>
	<g>
		<path class="st0" d="M129.5,235c-1.7-0.1-3-1.4-3-3.1c0-1.7,1.3-3.1,3-3.1l0,0.4c-1.5,0.1-2.7,1.3-2.7,2.8c0,1.5,1.2,2.7,2.7,2.8
			L129.5,235z"/>
	</g>
	<g>
		<path class="st0" d="M129.5,235l0-0.4c1.5-0.1,2.7-1.3,2.7-2.8c0-1.5-1.2-2.7-2.7-2.8l0-0.4c1.7,0.1,3,1.4,3,3.1
			C132.6,233.6,131.2,235,129.5,235z"/>
	</g>
	<g>
		<path class="st0" d="M129.5,234.1c-1.2,0-2.2-1-2.2-2.3c0-1.2,1-2.2,2.2-2.3l0,0.4c-1,0-1.8,0.9-1.8,1.9c0,1,0.8,1.8,1.8,1.9
			L129.5,234.1z"/>
	</g>
	<g>
		<path class="st0" d="M129.5,234.1l0-0.4c1,0,1.8-0.9,1.8-1.9c0-1-0.8-1.8-1.8-1.9l0-0.4c1.2,0,2.2,1,2.2,2.3
			C131.7,233.1,130.7,234.1,129.5,234.1z"/>
	</g>
	<g>
		<path class="st0" d="M129.5,273.9c-1.7-0.1-3-1.4-3-3.1c0-1.7,1.3-3.1,3-3.1l0,0.4c-1.5,0.1-2.7,1.3-2.7,2.8
			c0,1.5,1.2,2.7,2.7,2.8L129.5,273.9z"/>
	</g>
	<g>
		<path class="st0" d="M129.5,273.9l0-0.4c1.5-0.1,2.7-1.3,2.7-2.8c0-1.5-1.2-2.7-2.7-2.8l0-0.4c1.7,0.1,3,1.4,3,3.1
			C132.6,272.5,131.2,273.8,129.5,273.9z"/>
	</g>
	<g>
		<path class="st0" d="M129.5,273c-1.2,0-2.2-1-2.2-2.3s1-2.2,2.2-2.3l0,0.4c-1,0-1.8,0.9-1.8,1.9s0.8,1.8,1.8,1.9L129.5,273z"/>
	</g>
	<g>
		<path class="st0" d="M129.5,273l0-0.4c1,0,1.8-0.9,1.8-1.9c0-1-0.8-1.8-1.8-1.9l0-0.4c1.2,0,2.2,1,2.2,2.3S130.7,273,129.5,273z"
			/>
	</g>
	<g>
		<path class="st0" d="M129.5,312.8c-1.7-0.1-3-1.4-3-3.1c0-1.7,1.3-3.1,3-3.1l0,0.4c-1.5,0.1-2.7,1.3-2.7,2.8
			c0,1.5,1.2,2.7,2.7,2.8L129.5,312.8z"/>
	</g>
	<g>
		<path class="st0" d="M129.5,312.8l0-0.4c1.5-0.1,2.7-1.3,2.7-2.8c0-1.5-1.2-2.7-2.7-2.8l0-0.4c1.7,0.1,3,1.4,3,3.1
			C132.6,311.3,131.2,312.7,129.5,312.8z"/>
	</g>
	<g>
		<path class="st0" d="M129.5,311.9c-1.2,0-2.2-1-2.2-2.3c0-1.2,1-2.2,2.2-2.3l0,0.4c-1,0-1.8,0.9-1.8,1.9c0,1,0.8,1.8,1.8,1.9
			L129.5,311.9z"/>
	</g>
	<g>
		<path class="st0" d="M129.5,311.9l0-0.4c1,0,1.8-0.9,1.8-1.9c0-1-0.8-1.8-1.8-1.9l0-0.4c1.2,0,2.2,1,2.2,2.3
			C131.7,310.8,130.7,311.8,129.5,311.9z"/>
	</g>
	<g>
		<path class="st0" d="M129.5,351.6c-1.7-0.1-3-1.4-3-3.1s1.3-3.1,3-3.1l0,0.4c-1.5,0.1-2.7,1.3-2.7,2.8c0,1.5,1.2,2.7,2.7,2.8
			L129.5,351.6z"/>
	</g>
	<g>
		<path class="st0" d="M129.5,351.6l0-0.4c1.5-0.1,2.7-1.3,2.7-2.8c0-1.5-1.2-2.7-2.7-2.8l0-0.4c1.7,0.1,3,1.4,3,3.1
			S131.2,351.6,129.5,351.6z"/>
	</g>
	<g>
		<path class="st0" d="M129.5,350.7c-1.2,0-2.2-1-2.2-2.3c0-1.2,1-2.2,2.2-2.2l0,0.4c-1,0-1.8,0.9-1.8,1.9s0.8,1.8,1.8,1.9
			L129.5,350.7z"/>
	</g>
	<g>
		<path class="st0" d="M129.5,350.7l0-0.4c1,0,1.8-0.9,1.8-1.9s-0.8-1.8-1.8-1.9l0-0.4c1.2,0,2.2,1,2.2,2.2
			C131.7,349.7,130.7,350.7,129.5,350.7z"/>
	</g>
	<g>
		<path class="st0" d="M129.5,390.5c-1.7-0.1-3-1.4-3-3.1c0-1.7,1.3-3.1,3-3.1l0,0.4c-1.5,0.1-2.7,1.3-2.7,2.8s1.2,2.7,2.7,2.8
			L129.5,390.5z"/>
	</g>
	<g>
		<path class="st0" d="M129.5,390.5l0-0.4c1.5,0,2.7-1.3,2.7-2.8s-1.2-2.7-2.7-2.8l0-0.4c1.7,0.1,3,1.4,3,3.1
			S131.2,390.4,129.5,390.5z"/>
	</g>
	<g>
		<path class="st0" d="M129.5,389.6c-1.2,0-2.2-1-2.2-2.3c0-1.2,1-2.2,2.2-2.3l0,0.4c-1,0-1.8,0.9-1.8,1.9c0,1,0.8,1.8,1.8,1.9
			L129.5,389.6z"/>
	</g>
	<g>
		<path class="st0" d="M129.5,389.6l0-0.4c1,0,1.8-0.9,1.8-1.9c0-1-0.8-1.8-1.8-1.9l0-0.4c1.2,0,2.2,1,2.2,2.3
			C131.7,388.6,130.7,389.6,129.5,389.6z"/>
	</g>
	<g>
		<path class="st0" d="M311.5,288.9c-0.8,0-1.5-0.7-1.5-1.5c0-0.8,0.7-1.5,1.5-1.5c0.8,0,1.5,0.7,1.5,1.5
			C313,288.2,312.3,288.9,311.5,288.9z M311.5,286.3c-0.6,0-1.1,0.5-1.1,1.1c0,0.6,0.5,1.1,1.1,1.1c0.6,0,1.1-0.5,1.1-1.1
			C312.6,286.8,312.1,286.3,311.5,286.3z"/>
	</g>
	<g>
		
			<rect x="311.1" y="286.3" transform="matrix(0.7321 -0.6812 0.6812 0.7321 -112.4927 289.0959)" class="st0" width="0.4" height="2.6"/>
	</g>
	<g>
		
			<rect x="311.5" y="286" transform="matrix(0.7321 -0.6812 0.6812 0.7321 -112.1818 289.244)" class="st0" width="0.4" height="2.6"/>
	</g>
	<g>
		<path class="st0" d="M311.5,312.4c-0.8,0-1.5-0.7-1.5-1.5c0-0.8,0.7-1.5,1.5-1.5c0.8,0,1.5,0.7,1.5,1.5
			C313,311.8,312.3,312.4,311.5,312.4z M311.5,309.8c-0.6,0-1.1,0.5-1.1,1.1c0,0.6,0.5,1.1,1.1,1.1c0.6,0,1.1-0.5,1.1-1.1
			C312.6,310.3,312.1,309.8,311.5,309.8z"/>
	</g>
	<g>
		
			<rect x="311.1" y="309.8" transform="matrix(0.7318 -0.6816 0.6816 0.7318 -128.5448 295.6335)" class="st0" width="0.4" height="2.6"/>
	</g>
	<g>
		
			<rect x="311.5" y="309.5" transform="matrix(0.7318 -0.6816 0.6816 0.7318 -128.2336 295.7816)" class="st0" width="0.4" height="2.6"/>
	</g>
	<g>
		<path class="st0" d="M311.5,379.3c-0.8,0-1.5-0.7-1.5-1.5s0.7-1.5,1.5-1.5c0.8,0,1.5,0.7,1.5,1.5S312.3,379.3,311.5,379.3z
			 M311.5,376.7c-0.6,0-1.1,0.5-1.1,1.1s0.5,1.1,1.1,1.1c0.6,0,1.1-0.5,1.1-1.1S312.1,376.7,311.5,376.7z"/>
	</g>
	<g>
		
			<rect x="311.1" y="376.7" transform="matrix(0.7319 -0.6814 0.6814 0.7319 -174.1179 313.4507)" class="st0" width="0.4" height="2.6"/>
	</g>
	<g>
		
			<rect x="311.5" y="376.4" transform="matrix(0.7318 -0.6816 0.6816 0.7318 -173.8238 313.7247)" class="st0" width="0.4" height="2.6"/>
	</g>
	<g>
		<path class="st0" d="M464.6,417.9c-0.8,0-1.5-0.7-1.5-1.5s0.7-1.5,1.5-1.5c0.8,0,1.5,0.7,1.5,1.5S465.4,417.9,464.6,417.9z
			 M464.6,415.3c-0.6,0-1.1,0.5-1.1,1.1s0.5,1.1,1.1,1.1c0.6,0,1.1-0.5,1.1-1.1S465.2,415.3,464.6,415.3z"/>
	</g>
	<g>
		
			<rect x="464.2" y="415.3" transform="matrix(0.7321 -0.6812 0.6812 0.7321 -159.3366 427.933)" class="st0" width="0.4" height="2.6"/>
	</g>
	<g>
		
			<rect x="464.5" y="414.9" transform="matrix(0.7321 -0.6812 0.6812 0.7321 -159.0257 428.0811)" class="st0" width="0.4" height="2.6"/>
	</g>
	<g>
		<path class="st0" d="M388,417.9c-0.8,0-1.5-0.7-1.5-1.5s0.7-1.5,1.5-1.5c0.8,0,1.5,0.7,1.5,1.5S388.8,417.9,388,417.9z M388,415.3
			c-0.6,0-1.1,0.5-1.1,1.1s0.5,1.1,1.1,1.1c0.6,0,1.1-0.5,1.1-1.1S388.6,415.3,388,415.3z"/>
	</g>
	<g>
		
			<rect x="387.7" y="415.3" transform="matrix(0.7321 -0.6812 0.6812 0.7321 -179.843 375.7905)" class="st0" width="0.4" height="2.6"/>
	</g>
	<g>
		
			<rect x="388" y="414.9" transform="matrix(0.7321 -0.6812 0.6812 0.7321 -179.5321 375.9385)" class="st0" width="0.4" height="2.6"/>
	</g>
	<g>
		<path class="st0" d="M311.5,417.9c-0.8,0-1.5-0.7-1.5-1.5s0.7-1.5,1.5-1.5c0.8,0,1.5,0.7,1.5,1.5S312.3,417.9,311.5,417.9z
			 M311.5,415.3c-0.6,0-1.1,0.5-1.1,1.1s0.5,1.1,1.1,1.1c0.6,0,1.1-0.5,1.1-1.1S312.1,415.3,311.5,415.3z"/>
	</g>
	<g>
		
			<rect x="311.1" y="415.3" transform="matrix(0.7321 -0.6812 0.6812 0.7321 -200.3495 323.6479)" class="st0" width="0.4" height="2.6"/>
	</g>
	<g>
		
			<rect x="311.5" y="414.9" transform="matrix(0.7321 -0.6812 0.6812 0.7321 -200.0385 323.796)" class="st0" width="0.4" height="2.6"/>
	</g>
	<g>
		<path class="st0" d="M234.9,417.9c-0.8,0-1.5-0.7-1.5-1.5s0.7-1.5,1.5-1.5c0.8,0,1.5,0.7,1.5,1.5S235.7,417.9,234.9,417.9z
			 M234.9,415.3c-0.6,0-1.1,0.5-1.1,1.1s0.5,1.1,1.1,1.1c0.6,0,1.1-0.5,1.1-1.1S235.5,415.3,234.9,415.3z"/>
	</g>
	<g>
		
			<rect x="234.6" y="415.3" transform="matrix(0.7319 -0.6814 0.6814 0.7319 -220.8963 271.6316)" class="st0" width="0.4" height="2.6"/>
	</g>
	<g>
		
			<rect x="234.9" y="414.9" transform="matrix(0.7321 -0.6812 0.6812 0.7321 -220.5449 271.6534)" class="st0" width="0.4" height="2.6"/>
	</g>
	<g>
		<rect x="323.5" y="423.9" class="st0" width="0.4" height="200.3"/>
	</g>
	<g>
		<rect x="323.7" y="423.7" class="st0" width="151.9" height="0.4"/>
	</g>
	<g>
		<rect x="475.4" y="423.9" class="st0" width="0.4" height="18"/>
	</g>
	<g>
		<rect x="323.7" y="624" class="st0" width="151.9" height="0.4"/>
	</g>
	<g>
		<rect x="324.1" y="430.8" class="st0" width="151.2" height="0.4"/>
	</g>
	<g>
		<rect x="323.7" y="442.2" class="st0" width="151.3" height="0.4"/>
	</g>
	<g>
		<rect x="324.1" y="435.5" class="st0" width="151.2" height="0.4"/>
	</g>
	<g>
		<rect x="475.1" y="431" class="st0" width="0.4" height="11.1"/>
	</g>
	<g>
		<rect x="323.9" y="431" class="st0" width="0.4" height="11.4"/>
	</g>
	<g>
		<rect x="123.1" y="624.2" class="st0" width="0.4" height="0.1"/>
	</g>
	<g>
		<path class="st0" d="M495.4,624.3H495c0,0,0-0.1,0-0.1L495.4,624.3L495.4,624.3z"/>
	</g>
	<g>
		<rect x="476.1" y="606.2" class="st0" width="0.4" height="18"/>
	</g>
	<g>
		<rect x="475.4" y="606.2" class="st0" width="0.4" height="18"/>
	</g>
	<g>
		<rect x="147.1" y="606.2" class="st0" width="0.4" height="18"/>
	</g>
	<g>
		<rect x="146.4" y="606.2" class="st0" width="0.4" height="18"/>
	</g>
	<g>
		<rect x="147.1" y="532" class="st0" width="0.4" height="58.4"/>
	</g>
	<g>
		<rect x="146.4" y="532" class="st0" width="0.4" height="58.4"/>
	</g>
	<g>
		<rect x="147.1" y="457.7" class="st0" width="0.4" height="58.4"/>
	</g>
	<g>
		<rect x="146.4" y="457.7" class="st0" width="0.4" height="58.4"/>
	</g>
	<g>
		<rect x="147.9" y="442.2" class="st0" width="151.3" height="0.4"/>
	</g>
	<g>
		<rect x="476.1" y="532" class="st0" width="0.4" height="58.4"/>
	</g>
	<g>
		<rect x="475.4" y="532" class="st0" width="0.4" height="58.4"/>
	</g>
	<g>
		<rect x="476.1" y="457.7" class="st0" width="0.4" height="58.4"/>
	</g>
	<g>
		<rect x="475.4" y="457.7" class="st0" width="0.4" height="58.4"/>
	</g>
	<g>
		<rect x="475.6" y="427.7" class="st0" width="0.7" height="0.4"/>
	</g>
	<g>
		<path class="st0" d="M311.5,222c-0.8,0-1.5-0.7-1.5-1.5s0.7-1.5,1.5-1.5c0.8,0,1.5,0.7,1.5,1.5S312.3,222,311.5,222z M311.5,219.4
			c-0.6,0-1.1,0.5-1.1,1.1s0.5,1.1,1.1,1.1c0.6,0,1.1-0.5,1.1-1.1S312.1,219.4,311.5,219.4z"/>
	</g>
	<g>
		
			<rect x="311.1" y="219.4" transform="matrix(0.7319 -0.6814 0.6814 0.7319 -66.9152 271.2744)" class="st0" width="0.4" height="2.6"/>
	</g>
	<g>
		
			<rect x="311.5" y="219.1" transform="matrix(0.7318 -0.6816 0.6816 0.7318 -66.5905 271.5204)" class="st0" width="0.4" height="2.6"/>
	</g>
	<g>
		<path class="st0" d="M152.5,222c-0.8,0-1.5-0.7-1.5-1.5s0.7-1.5,1.5-1.5c0.8,0,1.5,0.7,1.5,1.5S153.3,222,152.5,222z M152.5,219.4
			c-0.6,0-1.1,0.5-1.1,1.1s0.5,1.1,1.1,1.1c0.6,0,1.1-0.5,1.1-1.1S153.1,219.4,152.5,219.4z"/>
	</g>
	<g>
		
			<rect x="152.1" y="219.4" transform="matrix(0.7319 -0.6814 0.6814 0.7319 -109.5338 162.9471)" class="st0" width="0.4" height="2.6"/>
	</g>
	<g>
		
			<rect x="152.5" y="219.1" transform="matrix(0.7318 -0.6816 0.6816 0.7318 -109.2373 163.1629)" class="st0" width="0.4" height="2.6"/>
	</g>
	<g>
		<rect x="112.2" y="14.2" class="st2" width="0.4" height="44.8"/>
	</g>
	<g>
		<rect x="510.3" y="14.2" class="st2" width="0.4" height="44.8"/>
	</g>
	<g>
		<rect x="65.3" y="423" class="st2" width="44.8" height="0.4"/>
	</g>
	<g>
		<rect x="65.3" y="61.1" class="st2" width="44.8" height="0.4"/>
	</g>
	<g>
		<polygon class="st2" points="112.2,14.2 112.2,14.2 112.7,14.2 		"/>
	</g>
	<g>
		<polygon class="st2" points="510.3,14.2 510.3,14.2 510.7,14.2 		"/>
	</g>
	<g>
		<rect x="117.2" y="14" class="st2" width="388.6" height="0.4"/>
	</g>
	<g>
		<path class="st3" d="M112.4,14.2l4.7,0.8v-1.6 M117.2,13.4l-4.7,0.8L117.2,13.4z"/>
	</g>
	<g>
		<path class="st2" d="M117.1,15.2l-4.7-0.8l0-0.2l0-0.2l4.7-0.8l0,0.2h0.2V15L117.1,15.2z M113.8,14.2l3.2,0.5v-1.1L113.8,14.2z"/>
	</g>
	<g>
		<path class="st3" d="M510.5,14.2l-4.7,0.8v-1.6 M505.8,13.4l4.7,0.8L505.8,13.4z"/>
	</g>
	<g>
		<path class="st2" d="M505.8,15.2l-0.3-0.2v-1.6h0.2l0-0.2l4.7,0.8l0,0.2l0,0.2L505.8,15.2z M506,13.7v1.1l3.2-0.5L506,13.7z"/>
	</g>
	<g>
		<polygon class="st2" points="65.3,423.4 65.3,423.4 65.3,423 		"/>
	</g>
	<g>
		<polygon class="st2" points="65.3,61.5 65.3,61.5 65.3,61.1 		"/>
	</g>
	<g>
		<rect x="65.1" y="66" class="st2" width="0.4" height="354.8"/>
	</g>
	<g>
		<path class="st3" d="M65.3,423.2l0.8-4.7h-1.6 M64.6,418.5l0.8,4.7L64.6,418.5z"/>
	</g>
	<g>
		<path class="st2" d="M65.6,423.2l-0.2,0l-0.2,0l-0.8-4.7l0.2,0v-0.2h1.6l0.2,0.3L65.6,423.2z M64.8,418.7l0.5,3.2l0.5-3.2H64.8z"
			/>
	</g>
	<g>
		<path class="st3" d="M65.3,61.3l0.8,4.7h-1.6 M64.6,66l0.8-4.7L64.6,66z"/>
	</g>
	<g>
		<path class="st2" d="M66.1,66.2h-1.6V66l-0.2,0l0.8-4.7l0.2,0l0.2,0l0.8,4.7L66.1,66.2z M64.8,65.8h1l-0.5-3.2L64.8,65.8z"/>
	</g>
	<g>
		<rect x="20.6" y="61.1" class="st2" width="44.8" height="0.4"/>
	</g>
	<g>
		<rect x="20.6" y="624" class="st2" width="89.5" height="0.4"/>
	</g>
	<g>
		<polygon class="st2" points="20.6,61.5 20.6,61.1 20.6,61.1 		"/>
	</g>
	<g>
		<polygon class="st2" points="20.6,624.4 20.5,624.4 20.5,624 		"/>
	</g>
	<g>
		<rect x="20.4" y="66" class="st2" width="0.4" height="553.5"/>
	</g>
	<g>
		<path class="st3" d="M20.6,61.3l0.8,4.7h-1.6 M19.8,66l0.8-4.7L19.8,66z"/>
	</g>
	<g>
		<path class="st2" d="M21.4,66.2h-1.6V66l-0.2,0l0.8-4.7l0.2,0l0.2,0l0.8,4.7L21.4,66.2z M20.1,65.8h1l-0.5-3.2L20.1,65.8z"/>
	</g>
	<g>
		<path class="st3" d="M20.6,624.2l0.8-4.7h-1.6 M19.8,619.5l0.8,4.7L19.8,619.5z"/>
	</g>
	<g>
		<path class="st2" d="M20.8,624.3l-0.2,0l-0.2,0l-0.8-4.7l0.2,0v-0.2h1.6l0.2,0.3L20.8,624.3z M20.1,619.7l0.5,3.2l0.5-3.2H20.1z"
			/>
	</g>
	<g>
		<polygon class="st2" points="229,409.8 229,409.8 229,409.3 		"/>
	</g>
	<g>
		<polygon class="st2" points="229,219.3 229,219.3 229,218.9 		"/>
	</g>
	<g>
		<rect x="228.8" y="223.8" class="st2" width="0.4" height="181"/>
	</g>
	<g>
		<path class="st3" d="M229,409.5l0.8-4.7h-1.6 M228.2,404.8l0.8,4.7L228.2,404.8z"/>
	</g>
	<g>
		<path class="st2" d="M229.2,409.6l-0.2,0l-0.2,0l-0.8-4.7l0.2,0v-0.2h1.6l0.2,0.3L229.2,409.6z M228.5,405.1l0.5,3.2l0.5-3.2
			H228.5z"/>
	</g>
	<g>
		<path class="st3" d="M229,219.1l0.8,4.7h-1.6 M228.2,223.8l0.8-4.7L228.2,223.8z"/>
	</g>
	<g>
		<path class="st2" d="M229.8,224.1h-1.6v-0.2l-0.2,0l0.8-4.7l0.2,0l0.2,0l0.8,4.7L229.8,224.1z M228.5,223.6h1.1l-0.5-3.2
			L228.5,223.6z"/>
	</g>
	<g>
		<polygon class="st2" points="146.9,331 146.4,331 146.9,331 		"/>
	</g>
	<g>
		<polygon class="st2" points="476.5,331 476.1,331 476.5,331 		"/>
	</g>
	<g>
		<rect x="151.3" y="330.8" class="st2" width="320.2" height="0.4"/>
	</g>
	<g>
		<path class="st3" d="M146.6,331l4.7,0.8v-1.6 M151.3,330.2l-4.7,0.8L151.3,330.2z"/>
	</g>
	<g>
		<path class="st2" d="M151.3,332l-4.7-0.8l0-0.2l0-0.2l4.7-0.8l0,0.2h0.2v1.6L151.3,332z M148,331l3.1,0.5v-1L148,331z"/>
	</g>
	<g>
		<path class="st3" d="M476.3,331l-4.7,0.8v-1.6 M471.6,330.2l4.7,0.8L471.6,330.2z"/>
	</g>
	<g>
		<path class="st2" d="M471.6,332l-0.3-0.2v-1.6h0.2l0-0.2l4.7,0.8l0,0.2l0,0.2L471.6,332z M471.8,330.5v1l3.1-0.5L471.8,330.5z"/>
	</g>
</g>
<g>
</g>
</svg>
