<?xml version="1.0"?>
<svg xmlns="http://www.w3.org/2000/svg" height="512px" viewBox="0 -78 512 512" width="512px"><path d="m481 64.75c4.144531 0 7.5-3.355469 7.5-7.5v-12.25h16c4.144531 0 7.5-3.355469 7.5-7.5v-30c0-4.144531-3.355469-7.5-7.5-7.5h-408.5c-4.140625 0-7.5 3.355469-7.5 7.5s3.359375 7.5 7.5 7.5h401v15h-482v-15h49c4.140625 0 7.5-3.355469 7.5-7.5s-3.359375-7.5-7.5-7.5h-56.5c-4.140625 0-7.5 3.355469-7.5 7.5v30c0 4.144531 3.359375 7.5 7.5 7.5h16v175h-16c-4.140625 0-7.5 3.355469-7.5 7.5v30c0 4.144531 3.359375 7.5 7.5 7.5h16v82.5c0 4.144531 3.359375 7.5 7.5 7.5h30c4.140625 0 7.5-3.355469 7.5-7.5v-32.5h2.667969c22.238281 0 40.332031-18.09375 40.332031-40.332031v-9.667969h240.5c4.144531 0 7.5-3.355469 7.5-7.5s-3.355469-7.5-7.5-7.5h-337v-15h482v15h-112.667969c-4.140625 0-7.5 3.355469-7.5 7.5s3.359375 7.5 7.5 7.5h16.167969v9.667969c0 22.238281 18.09375 40.332031 40.332031 40.332031h2.667969v32.5c0 4.144531 3.355469 7.5 7.5 7.5h30c4.144531 0 7.5-3.355469 7.5-7.5v-82.5h16c4.144531 0 7.5-3.355469 7.5-7.5v-30c0-4.144531-3.355469-7.5-7.5-7.5h-16v-130.5c0-4.144531-3.355469-7.5-7.5-7.5s-7.5 3.355469-7.5 7.5v130.5h-15v-175h15v12.25c0 4.144531 3.355469 7.5 7.5 7.5zm-384.5 209.917969c0 13.96875-11.363281 25.332031-25.332031 25.332031h-2.667969v-35h28zm-43-9.667969v75h-15v-75zm387.332031 35c-13.96875 0-25.332031-11.363281-25.332031-25.332031v-9.667969h28v35zm32.667969 40h-15v-75h15zm-90-295v175h-15v-175zm-60 0v175h-15v-175zm-60 0v175h-15v-175zm-60 0v175h-15v-175zm-60 0v175h-15v-175zm-60 0v175h-15v-175zm-45 175v-175h15v175zm60 0v-175h15v175zm60 0v-175h15v175zm60 0v-175h15v175zm60 0v-175h15v175zm60 0v-175h15v175zm60 0v-175h15v175zm45 0h-15v-175h15zm0 0" fill="#f48123"/></svg>
