<?xml version="1.0" encoding="utf-8"?>
<!-- Generator: Adobe Illustrator 16.0.0, SVG Export Plug-In . SVG Version: 6.00 Build 0)  -->
<!DOCTYPE svg PUBLIC "-//W3C//DTD SVG 1.1//EN" "http://www.w3.org/Graphics/SVG/1.1/DTD/svg11.dtd">
<svg version="1.1" id="Capa_1" xmlns="http://www.w3.org/2000/svg" xmlns:xlink="http://www.w3.org/1999/xlink" x="0px" y="0px"
	 width="512px" height="512px" viewBox="0 0 512 512" enable-background="new 0 0 512 512" xml:space="preserve">
<path fill="#F48123" d="M421.322,23.803H95.141v11.009c0,0.072,0.009,0.14,0.01,0.209c-0.001,0.072-0.01,0.139-0.01,0.21V74.64
	h-0.668v24.98h0.668v170.468l-0.668-0.352v28.226l0.668,0.352v167.363c0,6.896,5.592,12.489,12.489,12.489v10.141
	c0,6.896,5.593,12.489,12.49,12.489s12.49-5.593,12.49-12.489v-10.141h258.709v10.141c0,6.896,5.593,12.489,12.49,12.489
	c6.896,0,12.489-5.593,12.489-12.489v-10.141c6.896,0,12.489-5.593,12.489-12.489V276.353v-33.668v-28.739v-2.905
	c-0.053-1.171-0.111-2.343-0.177-3.513c-0.038-0.664,0.028-1.264,0.177-1.801v-43.021v-28.741v-12.513V35.233
	C428.787,30.124,425.716,25.738,421.322,23.803z M403.809,453.188H231.023v-33.32h172.786V453.188z M403.809,394.885H231.023
	v-33.321h172.786V394.885z M403.809,336.585H231.023v-33.321h172.786V336.585z M403.809,74.641h-32.928
	c-6.896,0-12.49,5.591-12.49,12.489c0,6.899,5.594,12.49,12.49,12.49h32.928v178.662H218.532c-6.896,0-12.489,5.593-12.489,12.49
	v162.416h-85.924V99.62h200.803c6.896,0,12.489-5.591,12.489-12.49c0-6.897-5.593-12.489-12.489-12.489H120.119V47.722h283.689
	V74.641z"/>
<g>
	<path fill="#F48123" d="M320.922,151.62c6.896,0,12.489-5.591,12.489-12.49c0-6.897-5.593-12.489-12.489-12.489H120.119v24.979
		H320.922z"/>
	<path fill="#F48123" d="M403.809,126.641h-32.928c-6.896,0-12.49,5.591-12.49,12.489c0,6.899,5.594,12.49,12.49,12.49h32.928
		v17.547h8.358v-45.333h-8.358V126.641z"/>
</g>
<g>
	<path fill="#F48123" d="M320.922,203.62c6.896,0,12.489-5.591,12.489-12.49c0-6.897-5.593-12.489-12.489-12.489H120.119v24.979
		H320.922z"/>
	<path fill="#F48123" d="M403.809,178.641h-32.928c-6.896,0-12.49,5.591-12.49,12.489c0,6.899,5.594,12.49,12.49,12.49h32.928
		v17.547h8.358v-45.333h-8.358V178.641z"/>
</g>
</svg>
