<?xml version="1.0" encoding="utf-8"?>
<!-- Generator: Adobe Illustrator 16.0.0, SVG Export Plug-In . SVG Version: 6.00 Build 0)  -->
<!DOCTYPE svg PUBLIC "-//W3C//DTD SVG 1.1//EN" "http://www.w3.org/Graphics/SVG/1.1/DTD/svg11.dtd">
<svg version="1.1" id="Layer_1" xmlns="http://www.w3.org/2000/svg" xmlns:xlink="http://www.w3.org/1999/xlink" x="0px" y="0px"
	 width="512px" height="512px" viewBox="0 0 512 512" enable-background="new 0 0 512 512" xml:space="preserve">
<g>
	<g>
		<ellipse fill="#F48222" cx="84.861" cy="85.305" rx="18.268" ry="17.309"/>
		<ellipse fill="#F48222" cx="85.752" cy="151.16" rx="18.267" ry="17.309"/>
		<ellipse fill="#F48222" cx="103.129" cy="416.693" rx="18.267" ry="17.307"/>
		<ellipse fill="#F48222" cx="144.563" cy="347.039" rx="16.039" ry="15.196"/>
		<ellipse fill="#F48222" cx="147.236" cy="129.208" rx="16.039" ry="15.197"/>
		<ellipse fill="#F48222" cx="104.464" cy="272.738" rx="16.039" ry="15.197"/>
		<ellipse fill="#F48222" cx="32.733" cy="395.584" rx="16.039" ry="15.197"/>
		<ellipse fill="#F48222" cx="87.09" cy="324.663" rx="14.257" ry="13.511"/>
		<ellipse fill="#F48222" cx="52.337" cy="257.12" rx="14.257" ry="13.509"/>
		<ellipse fill="#F48222" cx="30.061" cy="35.914" rx="14.257" ry="13.509"/>
		<ellipse fill="#F48222" cx="76.396" cy="206.461" rx="14.258" ry="13.509"/>
		<ellipse fill="#F48222" cx="25.605" cy="96.703" rx="9.803" ry="9.288"/>
		<ellipse fill="#F48222" cx="132.533" cy="44.356" rx="9.802" ry="9.287"/>
		<ellipse fill="#F48222" cx="145.9" cy="232.635" rx="9.803" ry="9.288"/>
		<ellipse fill="#F48222" cx="15.803" cy="284.982" rx="9.802" ry="9.285"/>
		<ellipse fill="#F48222" cx="38.971" cy="482.549" rx="9.802" ry="9.286"/>
		<ellipse fill="#F48222" cx="15.803" cy="447.931" rx="9.802" ry="9.286"/>
		<ellipse fill="#F48222" cx="28.557" cy="343.501" rx="7.63" ry="7.23"/>
		<ellipse fill="#F48222" cx="84.361" cy="363.448" rx="7.631" ry="7.229"/>
		<ellipse fill="#F48222" cx="134.818" cy="177.597" rx="7.63" ry="7.229"/>
		<ellipse fill="#F48222" cx="120.059" cy="479.169" rx="11.584" ry="10.976"/>
		<ellipse fill="#F48222" cx="30.952" cy="171.001" rx="15.147" ry="14.354"/>
	</g>
	<g>
		<polygon fill="#F48222" points="302.276,294.765 302.276,281.849 302.269,281.849 		"/>
		<polygon fill="#F48222" points="503.22,251.209 503.22,242.69 302.282,237.726 302.275,243.688 302.275,247.946 		"/>
		<polygon fill="#F48222" points="503.22,274.321 503.22,264.541 302.282,271.628 302.276,276.738 302.276,281.849 		"/>
		<polygon fill="#F48222" points="302.276,258.711 302.275,247.946 302.269,247.946 		"/>
		<polygon fill="#F48222" points="503.22,296.168 503.22,287.936 302.282,305.53 302.277,309.789 302.277,315.748 		"/>
		<polygon fill="#F48222" points="302.278,366.876 302.278,349.65 302.269,349.652 		"/>
		<polygon fill="#F48222" points="503.22,319.598 503.22,310.072 302.282,339.432 302.278,342.838 302.278,349.65 		"/>
		<polygon fill="#F48222" points="302.277,330.819 302.277,315.748 302.269,315.751 		"/>
		<polygon fill="#F48222" points="302.27,114.492 302.27,112.34 302.269,112.34 		"/>
		<polygon fill="#F48222" points="503.22,206.461 503.22,197.16 302.282,169.923 302.272,177.588 302.272,180.144 		"/>
		<polygon fill="#F48222" points="302.272,186.602 302.272,180.144 302.269,180.144 		"/>
		<polygon fill="#F48222" points="302.271,150.548 302.271,146.243 302.269,146.241 		"/>
		<polygon fill="#F48222" points="503.22,182.505 503.22,173.957 302.282,136.021 302.271,144.538 302.271,146.243 		"/>
		<polygon fill="#F48222" points="302.275,222.656 302.272,214.044 302.269,214.044 		"/>
		<polygon fill="#F48222" points="503.22,228.096 503.22,219.971 302.282,203.825 302.272,210.638 302.272,214.044 		"/>
		<polygon fill="#F48222" points="503.22,159.709 503.22,151.16 302.282,102.119 302.27,111.488 302.27,112.34 		"/>
		<polygon fill="#F48222" points="503.22,342.077 503.22,333.845 302.282,373.335 302.278,375.89 302.279,383.553 		"/>
		<polygon fill="#F48222" points="302.282,475.038 302.281,451.354 302.269,451.357 		"/>
		<polygon fill="#F48222" points="503.22,365.612 503.22,356.22 302.282,407.236 302.279,408.938 302.281,417.452 		"/>
		<polygon fill="#F48222" points="302.281,438.984 302.281,417.452 302.269,417.454 		"/>
		<path fill="#F48222" d="M503.22,113.437v-8.291L300.947,31.692L179.76,15.65l-0.024,13.09l73.982,11.846l-74.025,11.771
			l-0.018,10.063l74.043,11.856l-74.087,11.781l-0.02,10.043l74.105,11.865l-74.148,11.79l-0.019,10.025l74.167,11.876l-74.21,11.8
			l-0.02,10.247c0.011,0.002,0.021,0.005,0.029,0.006v-0.243l74.2,11.882l-73.333,11.66c-0.295,0.144-0.605,0.27-0.938,0.368
			l-0.019,9.972c0.031,0.003,0.06,0.009,0.091,0.013v-0.202l74.2,11.88l-74.213,11.802v-0.173c-0.038,0.011-0.081,0.013-0.12,0.021
			l-0.019,10.375c0.051,0.014,0.102,0.023,0.151,0.038v-0.252l74.2,11.881l-74.213,11.801v-0.201
			c-0.061,0.016-0.12,0.03-0.181,0.045l-0.02,10.424c0.073,0.021,0.143,0.045,0.213,0.066v-0.324l74.2,11.881l-74.213,11.803v-0.332
			c-0.08,0.021-0.161,0.042-0.242,0.06l-0.019,10.353c0.091,0.005,0.186,0.005,0.274,0.012v-0.084l74.2,11.881l-74.213,11.801
			v-0.267c-0.102,0.013-0.2,0.023-0.303,0.032l-0.02,10.339c0.114,0.024,0.227,0.054,0.336,0.084v-0.179l74.2,11.882l-74.213,11.8
			v-0.007c-0.121,0.018-0.24,0.04-0.366,0.052l-0.019,9.929c0.137,0.066,0.271,0.14,0.397,0.216v-0.181l74.2,11.88l-74.213,11.801
			v-0.215c-0.139,0.058-0.284,0.098-0.427,0.146l-0.02,10.017c0.157,0.033,0.311,0.072,0.459,0.114v-0.051l74.2,11.879
			l-73.722,11.723c-0.309,0.1-0.64,0.168-0.981,0.226l-0.018,9.922c0.176,0.015,0.349,0.045,0.521,0.071v-0.132l74.2,11.882
			l-73.941,11.759c-0.261,0.117-0.534,0.216-0.823,0.3l-0.019,9.886c0.197,0.033,0.392,0.072,0.583,0.117v-0.251l74.2,11.881
			l-74.213,11.802v-0.053c-0.199,0.114-0.403,0.211-0.613,0.308l-0.022,12.688l122.967-16.884l201.384-75.646v-8.865
			l-200.938,73.123l-74.214-11.803l74.201-11.879l0.013-9.367v-0.854l-74.213-11.802l74.201-11.882l0.011-8.516v-1.702
			l-74.211-11.801l74.201-11.881l0.01-7.665v-2.556l-74.21-11.802l74.201-11.881l0.01-6.814v-3.407l-74.209-11.799l74.2-11.881
			l0.009-5.962v-4.259l-74.208-11.802l74.2-11.88l0.008-5.11v-5.11l-74.208-11.802l74.2-11.88l0.006-4.259v-5.962l-74.206-11.8
			l74.2-11.883l0.003-3.405v-6.815l-74.204-11.799l74.201-11.88l0.003-2.557l-0.001-7.667l-74.203-11.799l74.201-11.881l0.002-1.703
			l-0.001-8.519l-74.202-11.798l74.201-11.882l0.001-0.852v-9.371l-74.202-11.799l74.201-11.881l200.951,57.583v-8.501
			l-200.946-59.3l-74.214-11.801l74.201-11.881L503.22,113.437z"/>
		<polygon fill="#F48222" points="503.22,387.985 503.22,379.437 302.282,441.137 302.281,441.99 302.281,451.354 		"/>
		<polygon fill="#F48222" points="302.279,402.93 302.279,383.553 302.269,383.555 		"/>
		<polygon fill="#F48222" points="503.666,113.589 503.22,113.437 503.22,127.52 503.221,127.521 		"/>
	</g>
</g>
</svg>
