<?xml version="1.0" encoding="iso-8859-1"?>
<!-- Generator: Adobe Illustrator 17.1.0, SVG Export Plug-In . SVG Version: 6.00 Build 0)  -->
<!DOCTYPE svg PUBLIC "-//W3C//DTD SVG 1.1//EN" "http://www.w3.org/Graphics/SVG/1.1/DTD/svg11.dtd">
<svg xmlns="http://www.w3.org/2000/svg" xmlns:xlink="http://www.w3.org/1999/xlink" version="1.1" id="Capa_1" x="0px" y="0px" viewBox="0 0 416.833 416.833" style="enable-background:new 0 0 416.833 416.833;" xml:space="preserve" width="512px" height="512px">
<g>
	<path d="M408.833,368.375V48.442c4.262-0.177,7.666-3.678,7.666-7.983c0-4.418-3.582-8-8-8H8c-4.418,0-8,3.582-8,8s3.582,8,8,8   v319.925c-4.341,0.09-7.834,3.629-7.834,7.992c0,4.418,3.582,8,8,8h400.667c4.418,0,8-3.582,8-8S413.251,368.375,408.833,368.375z    M392.833,48.458v319.917H111.979v-95.917c0-4.418-3.582-8-8-8H48.354c-4.418,0-8,3.582-8,8v95.917H24V48.458H392.833z    M56.354,328.226c1.977-0.094,3.884-0.92,5.285-2.322c1.49-1.49,2.34-3.55,2.34-5.66c0-2.1-0.85-4.16-2.34-5.65   c-1.401-1.401-3.308-2.227-5.285-2.321v-31.815h39.625v87.917H56.354V328.226z" fill="#f48123"/>
	<path d="M368.583,264.459h-56.604c-4.418,0-8,3.582-8,8v55.667c0,4.418,3.582,8,8,8h56.604c4.418,0,8-3.582,8-8v-55.667   C376.583,268.04,373.001,264.459,368.583,264.459z M360.583,320.125h-40.604v-39.667h40.604V320.125z" fill="#f48123"/>
	<path d="M224.333,336.125h55.646c4.418,0,8-3.582,8-8v-55.667c0-4.418-3.582-8-8-8h-55.646c-4.418,0-8,3.582-8,8v55.667   C216.333,332.544,219.916,336.125,224.333,336.125z M232.333,280.459h39.646v39.667h-39.646V280.459z" fill="#f48123"/>
	<path d="M191.875,264.459h-55.646c-4.418,0-8,3.582-8,8v55.667c0,4.418,3.582,8,8,8h55.646c4.418,0,8-3.582,8-8v-55.667   C199.875,268.04,196.293,264.459,191.875,264.459z M183.875,320.125h-39.646v-39.667h39.646V320.125z" fill="#f48123"/>
	<path d="M224.333,240.125h144.896c4.418,0,8-3.582,8-8V80.792c0-4.418-3.582-8-8-8H224.333c-4.418,0-8,3.582-8,8v151.333   C216.333,236.544,219.916,240.125,224.333,240.125z M232.333,168.042h32.333v56.083h-32.333V168.042z M312.333,168.042v56.083   h-31.667v-56.083H312.333z M280.667,152.042v-63.25h31.667v63.25H280.667z M328.333,224.125v-56.083h32.896v56.083H328.333z    M361.229,152.042h-32.896v-63.25h32.896V152.042z M264.667,88.792v63.25h-32.333v-63.25H264.667z" fill="#f48123"/>
	<path d="M48.354,240.125H193.25c4.418,0,8-3.582,8-8V80.792c0-4.418-3.582-8-8-8H48.354c-4.418,0-8,3.582-8,8v151.333   C40.354,236.544,43.936,240.125,48.354,240.125z M56.354,168.042h32.333v56.083H56.354V168.042z M136.354,168.042v56.083h-31.667   v-56.083H136.354z M104.688,152.042v-63.25h31.667v63.25H104.688z M152.354,224.125v-56.083h32.896v56.083H152.354z    M185.25,152.042h-32.896v-63.25h32.896V152.042z M88.688,88.792v63.25H56.354v-63.25H88.688z" fill="#f48123"/>
</g>
<g>
</g>
<g>
</g>
<g>
</g>
<g>
</g>
<g>
</g>
<g>
</g>
<g>
</g>
<g>
</g>
<g>
</g>
<g>
</g>
<g>
</g>
<g>
</g>
<g>
</g>
<g>
</g>
<g>
</g>
</svg>
