<?xml version="1.0" encoding="utf-8"?>
<!-- Generator: Adobe Illustrator 16.0.0, SVG Export Plug-In . SVG Version: 6.00 Build 0)  -->
<!DOCTYPE svg PUBLIC "-//W3C//DTD SVG 1.1//EN" "http://www.w3.org/Graphics/SVG/1.1/DTD/svg11.dtd">
<svg version="1.1" id="Layer_1" xmlns="http://www.w3.org/2000/svg" xmlns:xlink="http://www.w3.org/1999/xlink" x="0px" y="0px"
	 width="512px" height="512px" viewBox="0 0 512 512" enable-background="new 0 0 512 512" xml:space="preserve">
<g id="Waves">
	<path fill="#F48123" d="M132.11,193.229c42.621,0,85.211-14.681,128.359-44.024c72.605-49.395,164.249-49.378,239.147,0.063
		c3.699,2.426,8.657,1.395,11.074-2.331c2.422-3.726,1.388-8.726-2.309-11.168c-80.39-53.049-178.812-53.024-256.867,0.063
		c-80.28,54.608-158.479,54.616-239.05-0.008c-3.668-2.489-8.637-1.496-11.105,2.197c-2.465,3.693-1.488,8.702,2.176,11.19
		C46.832,178.557,89.485,193.229,132.11,193.229z"/>
	<path fill="#F48123" d="M508.382,247.151c-80.398-53.049-178.819-53.024-256.867,0.063c-80.288,54.624-158.487,54.616-239.05-0.008
		c-3.668-2.489-8.637-1.504-11.102,2.197c-2.469,3.693-1.492,8.702,2.172,11.19c43.293,29.344,85.941,44.024,128.566,44.024
		c42.621-0.009,85.211-14.681,128.367-44.031c72.598-49.402,164.242-49.371,239.147,0.063c3.699,2.425,8.661,1.394,11.079-2.332
		C513.113,254.594,512.078,249.593,508.382,247.151z"/>
	<path fill="#F48123" d="M508.382,358.533c-80.398-53.033-178.815-53.009-256.867,0.063c-80.272,54.624-158.464,54.64-239.05-0.009
		c-3.668-2.487-8.637-1.495-11.102,2.198c-2.469,3.693-1.492,8.702,2.172,11.191c43.297,29.351,85.953,44.031,128.574,44.023
		c42.621,0,85.211-14.681,128.355-44.032c72.609-49.387,164.246-49.371,239.151,0.063c3.699,2.426,8.661,1.395,11.079-2.33
		C513.113,365.975,512.078,360.974,508.382,358.533z"/>
</g>
</svg>
